<svg xmlns="http://www.w3.org/2000/svg" version="1.1" xmlns:xlink="http://www.w3.org/1999/xlink" width="200" height="200"><svg xmlns="http://www.w3.org/2000/svg" version="1.1" xmlns:xlink="http://www.w3.org/1999/xlink" viewBox="0 0 200 200"><rect width="200" height="200" fill="url('#gradient')"></rect><defs><linearGradient id="SvgjsLinearGradient1001" gradientTransform="rotate(68 0.5 0.5)"><stop offset="0%" stop-color="#353664"></stop><stop offset="100%" stop-color="#211c36"></stop></linearGradient></defs><g><g fill="#fcfb9b" transform="matrix(1.1984800121599026,0,0,1.1984800121599026,21.713019970304465,106.4956835560495)" stroke="#a8dc9f" stroke-width="0"><path d="M4.50-14.22L4.50-2.64L10.47-2.64L10.47 0L1.07 0L1.07-14.22L4.50-14.22ZM11.36-4.82L11.35-5.38Q11.35-6.96 11.96-8.20Q12.58-9.43 13.73-10.10Q14.88-10.76 16.44-10.76L16.44-10.76Q18.81-10.76 20.18-9.29Q21.54-7.82 21.54-5.29L21.54-5.29L21.54-5.18Q21.54-2.71 20.17-1.25Q18.80 0.20 16.46 0.20L16.46 0.20Q14.20 0.20 12.83-1.16Q11.46-2.51 11.36-4.82L11.36-4.82ZM14.65-5.77L14.64-5.18Q14.64-3.71 15.10-3.03Q15.56-2.34 16.46-2.34L16.46-2.34Q18.21-2.34 18.25-5.05L18.25-5.05L18.25-5.38Q18.25-8.22 16.44-8.22L16.44-8.22Q14.79-8.22 14.65-5.77L14.65-5.77ZM22.59-4.82L22.58-5.38Q22.58-6.96 23.19-8.20Q23.81-9.43 24.96-10.10Q26.11-10.76 27.67-10.76L27.67-10.76Q30.04-10.76 31.41-9.29Q32.77-7.82 32.77-5.29L32.77-5.29L32.77-5.18Q32.77-2.71 31.40-1.25Q30.03 0.20 27.69 0.20L27.69 0.20Q25.43 0.20 24.06-1.16Q22.70-2.51 22.59-4.82L22.59-4.82ZM25.88-5.77L25.87-5.18Q25.87-3.71 26.33-3.03Q26.79-2.34 27.69-2.34L27.69-2.34Q29.44-2.34 29.48-5.05L29.48-5.05L29.48-5.38Q29.48-8.22 27.67-8.22L27.67-8.22Q26.02-8.22 25.88-5.77L25.88-5.77ZM44.03-5.36L44.03-5.21Q44.03-2.74 42.92-1.27Q41.82 0.20 39.93 0.20L39.93 0.20Q38.48 0.20 37.54-0.87L37.54-0.87L37.54 4.06L34.25 4.06L34.25-10.57L37.32-10.57L37.42-9.59Q38.37-10.76 39.91-10.76L39.91-10.76Q41.87-10.76 42.95-9.32Q44.03-7.88 44.03-5.36L44.03-5.36ZM40.74-5.06L40.74-5.41Q40.74-8.22 39.10-8.22L39.10-8.22Q37.93-8.22 37.54-7.38L37.54-7.38L37.54-3.22Q37.97-2.34 39.12-2.34L39.12-2.34Q40.69-2.34 40.74-5.06L40.74-5.06ZM61.19-14.22L61.19-11.57L56.92-11.57L56.92 0L53.50 0L53.50-11.57L49.31-11.57L49.31-14.22L61.19-14.22ZM60.05-4.82L60.04-5.38Q60.04-6.96 60.65-8.20Q61.27-9.43 62.42-10.10Q63.57-10.76 65.13-10.76L65.13-10.76Q67.50-10.76 68.87-9.29Q70.23-7.82 70.23-5.29L70.23-5.29L70.23-5.18Q70.23-2.71 68.86-1.25Q67.49 0.20 65.15 0.20L65.15 0.20Q62.89 0.20 61.52-1.16Q60.16-2.51 60.05-4.82L60.05-4.82ZM63.34-5.77L63.33-5.18Q63.33-3.71 63.79-3.03Q64.25-2.34 65.15-2.34L65.15-2.34Q66.90-2.34 66.94-5.05L66.94-5.05L66.94-5.38Q66.94-8.22 65.13-8.22L65.13-8.22Q63.48-8.22 63.34-5.77L63.34-5.77ZM71.30-5.24L71.30-5.36Q71.30-6.96 71.83-8.19Q72.35-9.42 73.34-10.09Q74.33-10.76 75.63-10.76L75.63-10.76Q77.29-10.76 78.21-9.65L78.21-9.65L78.33-10.57L81.32-10.57L81.32-0.40Q81.32 1.00 80.67 2.03Q80.02 3.06 78.79 3.61Q77.56 4.16 75.94 4.16L75.94 4.16Q74.78 4.16 73.69 3.72Q72.60 3.28 72.02 2.58L72.02 2.58L73.40 0.64Q74.32 1.73 75.82 1.73L75.82 1.73Q78.01 1.73 78.01-0.52L78.01-0.52L78.01-0.85Q77.06 0.20 75.62 0.20L75.62 0.20Q73.68 0.20 72.49-1.28Q71.30-2.76 71.30-5.24L71.30-5.24ZM74.60-5.16L74.60-5.16Q74.60-3.86 75.09-3.10Q75.58-2.34 76.46-2.34L76.46-2.34Q77.52-2.34 78.01-3.06L78.01-3.06L78.01-7.50Q77.53-8.22 76.47-8.22L76.47-8.22Q75.60-8.22 75.10-7.44Q74.60-6.65 74.60-5.16ZM88.30 0.20L88.30 0.20Q85.87 0.20 84.37-1.25Q82.86-2.71 82.86-5.03L82.86-5.03L82.86-5.30Q82.86-6.92 83.46-8.16Q84.06-9.40 85.21-10.08Q86.37-10.76 87.95-10.76L87.95-10.76Q90.18-10.76 91.46-9.38Q92.75-8.00 92.75-5.53L92.75-5.53L92.75-4.25L86.21-4.25Q86.39-3.36 86.98-2.85Q87.58-2.34 88.53-2.34L88.53-2.34Q90.09-2.34 90.97-3.44L90.97-3.44L92.47-1.66Q91.86-0.81 90.73-0.31Q89.60 0.20 88.30 0.20ZM87.93-8.22L87.93-8.22Q86.48-8.22 86.21-6.31L86.21-6.31L89.53-6.31L89.53-6.56Q89.55-7.35 89.13-7.79Q88.71-8.22 87.93-8.22ZM94.62-13.19L97.91-13.19L97.91-10.57L99.65-10.57L99.65-8.28L97.91-8.28L97.91-3.45Q97.91-2.85 98.13-2.62Q98.34-2.38 98.97-2.38L98.97-2.38Q99.46-2.38 99.79-2.44L99.79-2.44L99.79-0.09Q98.91 0.20 97.94 0.20L97.94 0.20Q96.24 0.20 95.43-0.61Q94.62-1.41 94.62-3.04L94.62-3.04L94.62-8.28L93.27-8.28L93.27-10.57L94.62-10.57L94.62-13.19ZM104.16-15L104.16-9.43Q105.21-10.76 106.86-10.76L106.86-10.76Q108.60-10.76 109.49-9.73Q110.38-8.69 110.40-6.67L110.40-6.67L110.40 0L107.10 0L107.10-6.59Q107.10-7.43 106.76-7.83Q106.42-8.22 105.60-8.22L105.60-8.22Q104.58-8.22 104.16-7.58L104.16-7.58L104.16 0L100.87 0L100.87-15L104.16-15ZM117.34 0.20L117.34 0.20Q114.91 0.20 113.41-1.25Q111.90-2.71 111.90-5.03L111.90-5.03L111.90-5.30Q111.90-6.92 112.50-8.16Q113.11-9.40 114.26-10.08Q115.41-10.76 116.99-10.76L116.99-10.76Q119.22-10.76 120.51-9.38Q121.80-8.00 121.80-5.53L121.80-5.53L121.80-4.25L115.25-4.25Q115.43-3.36 116.03-2.85Q116.62-2.34 117.57-2.34L117.57-2.34Q119.13-2.34 120.01-3.44L120.01-3.44L121.51-1.66Q120.90-0.81 119.77-0.31Q118.64 0.20 117.34 0.20ZM116.97-8.22L116.97-8.22Q115.53-8.22 115.25-6.31L115.25-6.31L118.57-6.31L118.57-6.56Q118.59-7.35 118.17-7.79Q117.75-8.22 116.97-8.22ZM129.57-10.64L129.51-7.59L128.43-7.67Q126.88-7.67 126.44-6.69L126.44-6.69L126.44 0L123.14 0L123.14-10.57L126.23-10.57L126.34-9.21Q127.17-10.76 128.65-10.76L128.65-10.76Q129.18-10.76 129.57-10.64L129.57-10.64Z"></path></g></g></svg><style>@media (prefers-color-scheme: light) { :root { filter: none; } }
@media (prefers-color-scheme: dark) { :root { filter: none; } }
</style></svg>